<?xml version="1.0" standalone="no"?>
<!DOCTYPE svg PUBLIC "-//W3C//DTD SVG 20010904//EN"
 "http://www.w3.org/TR/2001/REC-SVG-20010904/DTD/svg10.dtd">
<svg version="1.0" xmlns="http://www.w3.org/2000/svg"
 width="1280.000000pt" height="1238.000000pt" viewBox="0 0 1280.000000 1238.000000"
 preserveAspectRatio="xMidYMid meet">
<g transform="translate(0.000000,1238.000000) scale(0.100000,-0.100000)"
fill="#000000" stroke="none">
<path d="M5735 12130 c-3024 -59 -3945 -304 -4497 -1196 -170 -274 -270 -504
-580 -1329 -99 -264 -232 -609 -295 -768 -63 -158 -112 -291 -109 -295 3 -5
98 -15 211 -22 197 -12 206 -12 226 6 33 30 117 161 244 384 214 372 353 566
532 746 373 372 858 580 1518 649 306 33 1052 12 1093 -29 23 -23 -12 -855
-59 -1411 -173 -2050 -665 -3691 -1511 -5043 -181 -288 -273 -421 -751 -1073
-336 -460 -456 -679 -508 -930 -17 -86 -20 -125 -16 -224 18 -385 147 -688
401 -941 202 -202 423 -321 711 -383 131 -28 235 -35 365 -22 998 101 1493
860 1814 2786 92 549 171 1194 261 2105 62 638 84 887 280 3200 75 883 164
1887 171 1928 l5 32 1360 0 c1192 0 1360 -2 1365 -15 18 -47 -101 -1508 -226
-2785 -245 -2485 -306 -3267 -341 -4361 -10 -304 -10 -422 -1 -550 33 -432
120 -774 281 -1104 224 -455 544 -778 983 -990 211 -102 439 -171 688 -210
161 -26 609 -32 770 -11 266 35 491 101 715 211 762 372 1343 1222 1616 2361
61 257 119 671 119 856 l0 68 -223 0 -223 0 -12 -127 c-33 -348 -142 -670
-302 -895 -71 -99 -216 -244 -305 -305 -354 -240 -871 -304 -1299 -162 -495
165 -793 614 -911 1376 -48 312 -59 491 -59 983 1 646 29 1071 165 2440 155
1569 202 2233 222 3090 l2 95 500 0 c275 0 937 -2 1470 -5 l970 -5 -3 870 c-1
479 -5 897 -8 931 l-5 61 -892 6 c-1475 11 -5472 16 -5922 7z"/>
</g>
</svg>
